<svg width="55" height="55" viewBox="0 0 55 55" fill="none" xmlns="http://www.w3.org/2000/svg">
<g clip-path="url(#clip0_244_561)">
<path d="M31.9105 0.805162C31.3948 0.289617 30.6954 0 29.9662 0C29.237 0 28.5377 0.289617 28.022 0.805162L8.77196 20.0552C8.27102 20.5738 7.99384 21.2685 8.0001 21.9895C8.00637 22.7106 8.29558 23.4003 8.80546 23.9102C9.31533 24.42 10.0051 24.7092 10.7261 24.7155C11.4471 24.7218 12.1418 24.4446 12.6605 23.9437L13.4662 23.1379V41.2494C13.4662 41.9788 13.7559 42.6782 14.2717 43.194C14.7874 43.7097 15.4869 43.9994 16.2162 43.9994H21.7162C22.4456 43.9994 23.145 43.7097 23.6608 43.194C24.1765 42.6782 24.4662 41.9788 24.4662 41.2494V35.7494C24.4662 35.0201 24.7559 34.3206 25.2717 33.8049C25.7874 33.2891 26.4869 32.9994 27.2162 32.9994H32.7162C33.4456 32.9994 34.145 33.2891 34.6608 33.8049C35.1765 34.3206 35.4662 35.0201 35.4662 35.7494V41.2494C35.4662 41.9788 35.7559 42.6782 36.2717 43.194C36.7874 43.7097 37.4869 43.9994 38.2162 43.9994H43.7162C44.4456 43.9994 45.145 43.7097 45.6608 43.194C46.1765 42.6782 46.4662 41.9788 46.4662 41.2494V23.1379L47.272 23.9437C47.7906 24.4446 48.4853 24.7218 49.2063 24.7155C49.9274 24.7092 50.6171 24.42 51.127 23.9102C51.6368 23.4003 51.926 22.7106 51.9323 21.9895C51.9386 21.2685 51.6614 20.5738 51.1605 20.0552L31.9105 0.805162Z" fill="black"/>
</g>
<defs>
<clipPath id="clip0_244_561">
<rect width="55" height="55" fill="white"/>
</clipPath>
</defs>
</svg>
